<svg xmlns="http://www.w3.org/2000/svg" width="48" height="48" viewBox="0 0 48 48"><g><g><g/><g><path fill="#431f5a" d="M23.999 0v13.716L12 20.573 0 13.715z"/></g><g><path fill="#722ed1" d="M12 20.573L24 27.429v13.714l-12-6.857L0 27.429V13.715z"/></g><g><path fill="#722ed1" d="M36 34.287L35.997 48 24 41.144 24 41.143V27.429z"/></g><g><path fill="#722ed1" d="M23.999 0L24 .002 24 0v13.714H24l11.998 6.857v-.004l.001.004h.002l11.998 6.857L48 13.716z"/></g><g><path fill="#431f5a" d="M47.998 13.715V27.43l-11.999 6.856-12-6.857 12-6.858z"/></g><g><path fill="#431f5a" d="M36 34.287l-12 6.857-.001-.001V27.429z"/></g></g></g></svg>